# xmcd
#
# Track frame offsets:
#	150
#	21208
#	38250
#	55878
#	68643
#	87176
#	100981
#	128432
#	149629
#	166891
#	187275
#	201947
#	218300
#	226897
#	251677
#
# Disc length: 3586 seconds
#
# Revision: 0
# Processed by: cddbd v1.5.1PL2 Copyright (c) Steve Scherf et al.
# Submitted via: dBpowerAMP V4.0
#
DISCID=c80e000f
DTITLE=tapok - tapokopat
DYEAR=2006
DGENRE=sega maloya
TTITLE0=Dovinèr
TTITLE1=Tangolaz
TTITLE2=Tsilaosa
TTITLE3=Lot bor somin
TTITLE4=Ibiza
TTITLE5=Kafrine mon kafrine
TTITLE6=Fimé kafé
TTITLE7=Konsomantèr
TTITLE8=Lo mwa d'novanm
TTITLE9=Té tan
TTITLE10=La mer
TTITLE11=Sanson zinzin
TTITLE12=Mazigator
TTITLE13=Sanson Lindor
TTITLE14=Somin paradi
EXTD=
EXTT0=
EXTT1=
EXTT2=
EXTT3=
EXTT4=
EXTT5=
EXTT6=
EXTT7=
EXTT8=
EXTT9=
EXTT10=
EXTT11=
EXTT12=
EXTT13=
EXTT14=
PLAYORDER=
